<?xml version="1.0" encoding="utf-8"?>
<!-- Generator: Adobe Illustrator 27.5.0, SVG Export Plug-In . SVG Version: 6.00 Build 0)  -->
<svg version="1.1" id="Layer_1" xmlns="http://www.w3.org/2000/svg" xmlns:xlink="http://www.w3.org/1999/xlink" x="0px" y="0px"
	 viewBox="0 0 1080 1080" style="enable-background:new 0 0 1080 1080;" xml:space="preserve">
<style type="text/css">
	.st0{fill:#004A40;}
	.st1{fill:#00B44C;}
	.st2{fill:#C7FF1D;}
</style>
<rect class="st0" width="1080" height="1080"/>
<path class="st1" d="M1033,629.8c3.4,78.9-215.4,152.4-488.7,164.2S46.6,751.5,43.2,672.6s215.4-152.4,488.7-164.2
	c141-6.1,269.1,5.4,360.4,28.9c26.8,6.9-223,100.7-223,100.7s329.2-58.7,341-48.3C1024.5,602,1032.4,615.5,1033,629.8z"/>
<g>
	<path class="st2" d="M44.6,615.7l-7.3-265l93.8-2.1L92.7,585.2l101.2-8.2l-3.3,41.2L44.6,615.7z"/>
	<path class="st2" d="M243.5,601.2l-7.3-265.1l173.6,1.7l-2.3,26.8l-83.4,6.5l-13.7,82.6l83.8,2.7l0.4,36.2L306,482.1l-14.4,89
		l109.1-8.2l-3.3,41.2L243.5,601.2z"/>
	<path class="st2" d="M477.5,587.8l-39.1-7.7l84.8-263.6l94.9,10l40.1,262.8l-35.6,4.5l-24.3-67.7l-105,4.4L477.5,587.8z
		 M590.5,504.6l-49-136.7l-3.1-0.1L501.7,500L590.5,504.6z"/>
	<path class="st2" d="M738.8,572.3l-11.5-259.2c8.2-2.3,18.6-4.6,31.2-6.9c12.6-2.3,26.4-4,41.4-5.3c15-1.2,30.1-1.5,45.3-0.9
		c14.7,0.6,29,2.7,42.9,6.2c13.9,3.5,26.2,9,36.9,16.4c4.1,14.6,5.9,28.5,5.3,41.6c-0.9,21.7-7.8,40.3-20.7,56
		c-12.9,15.7-29.6,28.5-50.3,38.4c-20.6,10-43.3,17.3-67.9,21.8L778.3,570L738.8,572.3z M795.4,453.4c18.2-9.1,32.4-21.2,42.5-36.2
		c10.1-15,15.4-29.8,16.1-44.5c0.4-9.4-1.3-18.2-5-26.5c-3.7-8.3-9.7-15.2-17.8-20.6c-2.6-0.1-5.5,0-8.5,0.4c-3,0.4-6,1-8.9,1.6
		L795.4,453.4z"/>
	<path class="st2" d="M1001.5,562.9c-10-0.4-18.4-4.5-25.3-12.1c-6.9-7.7-10.1-16.6-9.7-26.7c0.4-10.2,4.4-18.8,11.9-25.8
		c7.5-7,16.3-10.4,26.2-9.9c10,0.4,18.4,4.5,25.3,12.1c6.9,7.7,10.1,16.6,9.7,26.7c-0.4,10.2-4.4,18.8-11.9,25.8
		C1020.2,560,1011.5,563.3,1001.5,562.9z M987.1,465.5l-5-170.9l71.7-9.8l9.9,16.5l-41.5,162.2L987.1,465.5z"/>
</g>
<g>
	<path d="M144.3,744.8c-10.7,0-19.7-2-27.2-5.9c-7.4-4-13.1-9.2-17.1-15.6c-4-6.5-5.9-13.7-5.9-21.6c0-19.7,12.4-35,37.3-45.8
		c-4.2-5.7-8.1-11.7-11.8-18.1c-3.6-6.4-5.5-13.9-5.5-22.4c0-11.3,4-20.4,12.1-27.3c8.1-6.9,18.7-10.3,31.8-10.3
		c12.8,0,22.7,2.9,29.7,8.6c7,5.7,10.5,13.3,10.5,22.7c0,8.2-3.2,15.4-9.5,21.5c-6.3,6.1-15.4,11.7-27.4,16.9
		c2.9,3.2,6,6.7,9.2,10.3c3.2,3.6,6.6,7.5,10.2,11.5c4.5,4.8,8.9,9.5,13,13.8c4.1,4.4,8.3,8.9,12.5,13.6c3.7-5.5,7.2-11.8,10.4-19
		c3.2-7.2,5.8-14.8,7.8-22.7c1.3-6-1.1-9.9-7-11.6l-1.9-0.7v-4.6h29.6v4.6l-2.7,1c-5.2,1.8-8.4,5.3-9.7,10.4
		c-2.6,8.9-5.7,17.3-9.2,25.3c-3.6,8-7.7,15.3-12.4,21.9l22.8,24.5c1.9,2.1,4,3.8,6.1,5.2c2.1,1.4,4.4,2.6,7,3.8l4.8,1.9v4.8
		l-46.6,0.2l-15.8-17.2c-4.7,5-10.5,9.7-17.5,13.9C165.3,742.7,156,744.8,144.3,744.8z M157.4,728.4c5.7,0,10.8-0.8,15.5-2.5
		c4.7-1.7,8.7-3.9,12.1-6.7c-8.1-9.1-16-18.1-23.8-27.2c-4.5-5.7-8.9-11-13.1-16c-4.2-5-8.3-10-12.4-15c-5,4-8.5,8.7-10.5,14.1
		c-2,5.3-3,10.8-3,16.5c0,10.5,3.3,19.3,9.8,26.3C138.6,724.8,147.1,728.4,157.4,728.4z M157.7,643.2c6.5-5.7,11.2-11.3,14.3-17
		c3.1-5.7,4.6-12,4.6-18.9c0-6.3-1.7-11.4-5-15.3c-3.3-3.9-7.8-5.8-13.5-5.8c-5.3,0-9.8,1.9-13.5,5.8c-3.6,3.9-5.5,8.9-5.5,15
		c0,3.7,0.7,7.6,2.1,11.6c1.4,4,3.9,8.6,7.6,13.8c1,1.3,2.2,2.8,3.6,4.5C154,638.8,155.7,640.8,157.7,643.2z"/>
	<path d="M268.2,741.4v-5.1l4.9-1.5c3.4-1.1,5.6-2.6,6.5-4.5c1-1.9,1.5-4.5,1.5-7.9V599.8c0-3.2-0.5-5.8-1.5-7.6
		c-1-1.9-3.1-3.4-6.3-4.5l-5.1-1.5v-5.1h60.1v5.1l-4.6,1.5c-3.1,1.1-5.1,2.7-6.2,4.6c-1.1,1.9-1.6,4.6-1.6,8v133.9h35.6
		c5.5,0,9.6-1.4,12.4-4.1c2.7-2.7,5.3-6.7,7.8-11.9l9-20.1h6.8l-2.4,43.4H268.2z"/>
	<path d="M459.3,621.4c10.2,0,18.9,2.1,26.2,6.3c7.3,4.2,12.9,10,16.9,17.3c4,7.4,5.9,15.8,5.9,25.3c0,2.1-0.1,4.1-0.2,5.9
		c-0.2,1.9-0.5,3.6-1,5.2h-73c0.2,16.7,3.3,28.6,9.3,35.9c6.1,7.3,14.9,10.9,26.6,10.9c8.1,0,14.6-1.3,19.6-4
		c5-2.7,9.6-6.4,13.8-11.3l3.9,3.6c-4.8,8.9-11.4,15.8-19.8,20.7c-8.3,4.9-18.2,7.4-29.7,7.4c-11.5,0-21.6-2.4-30.3-7.3
		c-8.7-4.8-15.6-11.8-20.5-21c-4.9-9.1-7.4-20.1-7.4-32.9c0-13.3,2.9-24.5,8.6-33.7c5.7-9.2,13.2-16.3,22.3-21.2
		C439.7,623.9,449.3,621.4,459.3,621.4z M458.1,628.4c-4.7,0-8.8,1.3-12.2,4c-3.5,2.7-6.2,7.4-8.2,14.1c-2,6.7-3.2,16.1-3.5,28.2
		h43.4c1.8-16.3,1.1-28.1-1.9-35.4C472.5,632.1,466.7,628.4,458.1,628.4z"/>
	<path d="M554.6,744.8c-9.2,0-17-2.6-23.4-7.9c-6.4-5.3-9.6-12.8-9.6-22.7c0-7.8,3.8-14.9,11.3-21.5s19.4-11.4,35.5-14.4
		c2.7-0.6,5.9-1.3,9.6-1.8c3.6-0.6,7.2-1.2,10.8-1.8v-17.2c0-11-1.4-18.6-4.1-22.8c-2.8-4.2-7.1-6.3-13.1-6.3h-0.7
		c-3.7,0-6.7,1.2-8.9,3.5c-2.2,2.3-3.6,6.2-4.2,11.5l-0.7,3.2c-0.5,6.5-2.2,11.2-5.1,14.2c-2.9,3-6.5,4.5-10.9,4.5
		c-4,0-7.4-1.2-10.1-3.8c-2.7-2.5-4-5.8-4-9.8c0-6.6,2.3-12.2,6.8-16.7c4.5-4.5,10.5-7.9,18.1-10.2c7.5-2.3,15.6-3.4,24.4-3.4
		c14.4,0,25.4,3.5,33,10.4c7.6,7,11.4,18.3,11.4,33.9v54.1c0,7,3.3,10.4,9.9,10.4h5.6l2.4,2.7c-2.9,3.7-6.1,6.6-9.7,8.6
		c-3.6,2-8.4,3-14.5,3c-7,0-12.5-1.7-16.6-5s-6.8-7.7-8.1-13.2c-5.2,5.5-10.3,9.9-15.3,13.3C569.2,743.1,562.7,744.8,554.6,744.8z
		 M568.7,729.3c3.2,0,6.3-0.7,9.2-2.2s6.5-3.9,10.9-7.3v-38.8c-4.2,0.6-8.5,1.5-12.9,2.4c-7,1.6-12.6,4.6-16.9,9
		c-4.3,4.4-6.4,10.3-6.4,17.7c0,6.5,1.5,11.3,4.5,14.4C560.1,727.7,564,729.3,568.7,729.3z"/>
	<path d="M643.4,741.4v-4.6l3.6-1.2c3.2-0.8,5.5-2.2,6.7-4.1c1.2-1.9,1.8-4.5,1.8-7.8v-71c-0.2-3.6-0.8-6.3-1.9-8.1
		c-1.1-1.9-3.3-3.1-6.5-3.8l-3.6-1v-4.4l39.5-14.1l2.9,2.7l2.2,21.3v1.7c2.4-4.5,5.5-8.7,9.2-12.6c3.7-3.9,7.8-7,12.1-9.5
		s8.7-3.6,13.1-3.6c6.1,0,10.8,1.6,13.8,4.8c3.1,3.2,4.6,7.4,4.6,12.4c0,5.5-1.5,9.7-4.6,12.5c-3.1,2.8-6.8,4.2-11.2,4.2
		c-6.5,0-12-2.9-16.7-8.7l-0.5-0.5c-1.6-1.9-3.4-3-5.5-3.3c-2-0.2-4,0.8-5.9,3c-1.6,1.6-3.1,3.5-4.5,5.7c-1.4,2.2-2.6,4.7-3.8,7.6
		v63.5c0,3.1,0.6,5.6,1.9,7.6c1.3,2,3.5,3.4,6.5,4.2l7.3,2.2v4.6H643.4z"/>
	<path d="M748.8,741.4v-4.6l3.9-1c5.3-1.6,8-5.6,8-11.9v-71.5c-0.2-3.4-0.7-6-1.7-7.9c-1-1.9-3.1-3.1-6.3-3.8l-3.9-1v-4.4l39.3-14.1
		l2.9,2.7l1.7,15c5.8-5.2,12.3-9.4,19.5-12.7c7.2-3.3,14.3-5,21.2-5c10.7,0,18.9,2.9,24.6,8.7c5.7,5.8,8.6,14.7,8.6,26.7v67.4
		c0,6.3,2.9,10.3,8.7,11.9l2.7,0.7v4.6h-55.8v-4.6l3.6-1c5.3-1.8,8-5.7,8-11.9v-72c0-5.7-1.2-9.8-3.6-12.4
		c-2.4-2.6-6.5-3.9-12.1-3.9c-7.9,0-16.2,3.5-24.7,10.4v78.1c0,6.3,2.8,10.3,8.5,11.9l2.4,0.7v4.6H748.8z"/>
</g>
</svg>
